<?xml version="1.0" encoding="UTF-8"?>
<!DOCTYPE svg PUBLIC "-//W3C//DTD SVG 1.1//EN" "http://www.w3.org/Graphics/SVG/1.1/DTD/svg11.dtd">
<svg xmlns="http://www.w3.org/2000/svg" version="1.1" width="351px" height="204px" style="shape-rendering:geometricPrecision; text-rendering:geometricPrecision; image-rendering:optimizeQuality; fill-rule:evenodd; clip-rule:evenodd" xmlns:xlink="http://www.w3.org/1999/xlink">
<g><path style="opacity:0.949" fill="#0080ba" d="M 320.5,54.5 C 318.631,46.2871 317.298,37.9538 316.5,29.5C 319.445,27.562 322.612,25.8953 326,24.5C 329.46,32.8957 329.126,41.2291 325,49.5C 323.951,51.6175 322.451,53.2842 320.5,54.5 Z"/></g>
<g><path style="opacity:0.97" fill="#0086b2" d="M 316.5,29.5 C 317.298,37.9538 318.631,46.2871 320.5,54.5C 319.5,56.1667 318.167,57.5 316.5,58.5C 314.313,49.7226 312.646,40.7226 311.5,31.5C 313.05,30.5592 314.716,29.8925 316.5,29.5 Z"/></g>
<g><path style="opacity:1" fill="#0f8ea5" d="M 311.5,31.5 C 312.646,40.7226 314.313,49.7226 316.5,58.5C 314.049,61.2768 311.049,63.2768 307.5,64.5C 305.833,55.1667 304.167,45.8333 302.5,36.5C 305.339,34.5797 308.339,32.9131 311.5,31.5 Z"/></g>
<g><path style="opacity:1" fill="#21949a" d="M 302.5,36.5 C 304.167,45.8333 305.833,55.1667 307.5,64.5C 305.853,66.3264 303.853,67.6597 301.5,68.5C 299.95,59.1979 298.616,49.8645 297.5,40.5C 298.945,38.9373 300.611,37.604 302.5,36.5 Z"/></g>
<g><path style="opacity:0.958" fill="#409d89" d="M 297.5,40.5 C 298.616,49.8645 299.95,59.1979 301.5,68.5C 299.393,70.7267 297.06,72.7267 294.5,74.5C 292.421,65.3678 290.754,56.0345 289.5,46.5C 291.8,44.016 294.467,42.016 297.5,40.5 Z"/></g>
<g><path style="opacity:1" fill="#50a37d" d="M 289.5,46.5 C 290.754,56.0345 292.421,65.3678 294.5,74.5C 293.5,76.1667 292.167,77.5 290.5,78.5C 288.715,69.1213 286.715,59.788 284.5,50.5C 286.142,49.197 287.809,47.8637 289.5,46.5 Z"/></g>
<g><path style="opacity:0.976" fill="#67aa68" d="M 284.5,50.5 C 286.715,59.788 288.715,69.1213 290.5,78.5C 288.246,82.0066 286.246,85.6733 284.5,89.5C 283.833,89.5 283.167,89.5 282.5,89.5C 281.678,79.2334 280.011,69.2334 277.5,59.5C 279.451,56.2139 281.785,53.2139 284.5,50.5 Z"/></g>
<g><path style="opacity:0.979" fill="#76b157" d="M 277.5,59.5 C 280.011,69.2334 281.678,79.2334 282.5,89.5C 282.065,92.1573 281.065,94.4907 279.5,96.5C 277.833,85.832 276.166,75.1653 274.5,64.5C 275.11,62.5659 276.11,60.8993 277.5,59.5 Z"/></g>
<g><path style="opacity:0.979" fill="#82b643" d="M 274.5,64.5 C 276.166,75.1653 277.833,85.832 279.5,96.5C 277.551,107.398 277.051,118.398 278,129.5C 279.695,137.476 281.195,145.476 282.5,153.5C 280.792,150.05 279.459,146.383 278.5,142.5C 275.687,122.619 272.354,102.953 268.5,83.5C 268.918,76.5833 270.918,70.25 274.5,64.5 Z"/></g>
<g><path style="opacity:0.948" fill="#01497d" d="M 282.5,89.5 C 283.167,89.5 283.833,89.5 284.5,89.5C 285.483,94.954 286.983,100.287 289,105.5C 306.035,135.944 303.868,164.944 282.5,192.5C 282.167,192.333 281.833,192.167 281.5,192C 285.142,179.3 285.476,166.466 282.5,153.5C 281.195,145.476 279.695,137.476 278,129.5C 277.051,118.398 277.551,107.398 279.5,96.5C 281.065,94.4907 282.065,92.1573 282.5,89.5 Z"/></g>
<g><path style="opacity:0.882" fill="#00487e" d="M 319.5,92.5 C 320.239,92.369 320.906,92.5357 321.5,93C 317.829,103.84 310.496,110.673 299.5,113.5C 292.283,112.231 290.283,108.398 293.5,102C 302.388,99.1231 311.055,95.9564 319.5,92.5 Z"/></g>
<g><path style="opacity:0.729" fill="#0078c2" d="M 128.5,97.5 C 133.046,97.2681 137.379,98.1015 141.5,100C 145.802,104.797 145.136,108.797 139.5,112C 132.554,114.697 126.388,113.53 121,108.5C 120.148,102.523 122.648,98.856 128.5,97.5 Z M 129.5,100.5 C 132.97,99.8748 135.804,100.875 138,103.5C 138.996,108.008 137.163,110.341 132.5,110.5C 127.44,110.613 125.606,108.279 127,103.5C 127.698,102.309 128.531,101.309 129.5,100.5 Z"/></g>
<g><path style="opacity:0.823" fill="#0078c2" d="M 95.5,98.5 C 97.1667,98.5 98.8333,98.5 100.5,98.5C 100.5,100.167 100.5,101.833 100.5,103.5C 104.167,103.5 107.833,103.5 111.5,103.5C 111.5,101.833 111.5,100.167 111.5,98.5C 113.167,98.5 114.833,98.5 116.5,98.5C 116.5,103.5 116.5,108.5 116.5,113.5C 114.833,113.5 113.167,113.5 111.5,113.5C 111.5,111.167 111.5,108.833 111.5,106.5C 107.833,106.5 104.167,106.5 100.5,106.5C 100.5,108.833 100.5,111.167 100.5,113.5C 98.8333,113.5 97.1667,113.5 95.5,113.5C 95.5,108.5 95.5,103.5 95.5,98.5 Z"/></g>
<g><path style="opacity:0.77" fill="#0078c2" d="M 148.5,98.5 C 154.842,98.3338 161.175,98.5005 167.5,99C 169.68,101.418 170.013,104.084 168.5,107C 163.599,108.325 158.599,108.825 153.5,108.5C 153.5,110.167 153.5,111.833 153.5,113.5C 151.856,113.714 150.356,113.38 149,112.5C 148.501,107.845 148.334,103.179 148.5,98.5 Z M 153.5,100.5 C 156.85,100.335 160.183,100.502 163.5,101C 165.335,101.928 165.668,103.094 164.5,104.5C 160.893,105.489 157.226,105.823 153.5,105.5C 153.5,103.833 153.5,102.167 153.5,100.5 Z"/></g>
<g><path style="opacity:0.715" fill="#0078c2" d="M 173.5,98.5 C 175.5,98.5 177.5,98.5 179.5,98.5C 179.5,103.5 179.5,108.5 179.5,113.5C 177.533,113.739 175.699,113.406 174,112.5C 173.501,107.845 173.334,103.179 173.5,98.5 Z"/></g>
<g><path style="opacity:0.862" fill="#0078c2" d="M 182.5,98.5 C 189.532,98.1697 196.532,98.503 203.5,99.5C 200.914,100.48 198.247,100.813 195.5,100.5C 195.5,104.833 195.5,109.167 195.5,113.5C 193.856,113.714 192.356,113.38 191,112.5C 190.501,108.514 190.334,104.514 190.5,100.5C 187.302,101.036 184.635,100.369 182.5,98.5 Z"/></g>
<g><path style="opacity:0.764" fill="#0078c2" d="M 212.5,98.5 C 214.857,98.3367 217.19,98.5034 219.5,99C 223.412,103.077 226.745,107.577 229.5,112.5C 225.261,114.463 222.261,113.296 220.5,109C 216.833,108.333 213.167,108.333 209.5,109C 208.257,110.154 207.257,111.488 206.5,113C 205.056,113.781 203.723,113.614 202.5,112.5C 206.246,108.094 209.58,103.427 212.5,98.5 Z M 214.5,101.5 C 218.987,105.073 218.32,106.24 212.5,105C 213.305,103.887 213.972,102.721 214.5,101.5 Z"/></g>
<g><path style="opacity:0.738" fill="#0078c2" d="M 233.5,98.5 C 235.167,98.5 236.833,98.5 238.5,98.5C 238.5,102.5 238.5,106.5 238.5,110.5C 242.833,110.5 247.167,110.5 251.5,110.5C 251.5,111.5 251.5,112.5 251.5,113.5C 245.824,113.666 240.157,113.499 234.5,113C 233.531,108.263 233.197,103.43 233.5,98.5 Z"/></g>
<g><path style="opacity:1" fill="#90be2a" d="M 268.5,83.5 C 272.354,102.953 275.687,122.619 278.5,142.5C 270.246,123.578 266.913,103.911 268.5,83.5 Z"/></g>
<g><path style="opacity:0.89" fill="#00487e" d="M 109.5,119.5 C 119.532,118.2 128.865,120.033 137.5,125C 143.632,130.342 145.132,136.842 142,144.5C 132.994,153.465 122.16,156.631 109.5,154C 100.711,152.85 94.5439,148.35 91,140.5C 89.6495,133.208 92.1495,127.708 98.5,124C 102.157,122.178 105.824,120.678 109.5,119.5 Z M 112.5,125.5 C 122.413,123.777 128.746,127.611 131.5,137C 128.751,146.549 122.417,150.216 112.5,148C 99.4023,140.57 99.4023,133.07 112.5,125.5 Z"/></g>
<g><path style="opacity:0.883" fill="#00487e" d="M 168.5,119.5 C 178.265,119.091 187.931,119.758 197.5,121.5C 197.5,124.167 197.5,126.833 197.5,129.5C 189.186,125.928 180.52,124.762 171.5,126C 160.051,130.627 158.385,137.294 166.5,146C 172.612,148.414 178.946,149.081 185.5,148C 189.559,146.924 193.559,145.757 197.5,144.5C 197.813,147.247 197.48,149.914 196.5,152.5C 187.277,154.48 177.943,154.98 168.5,154C 159.572,152.802 153.072,148.302 149,140.5C 147.654,133.875 149.82,128.709 155.5,125C 159.741,122.651 164.075,120.818 168.5,119.5 Z"/></g>
<g><path style="opacity:0.91" fill="#00487e" d="M 44.5,120.5 C 58.5,120.5 72.5,120.5 86.5,120.5C 86.5,122.5 86.5,124.5 86.5,126.5C 76.5,126.5 66.5,126.5 56.5,126.5C 56.5,128.5 56.5,130.5 56.5,132.5C 66.1667,132.5 75.8333,132.5 85.5,132.5C 85.5,134.5 85.5,136.5 85.5,138.5C 75.8333,138.5 66.1667,138.5 56.5,138.5C 56.5,143.5 56.5,148.5 56.5,153.5C 52.5633,153.793 48.73,153.46 45,152.5C 44.5002,141.839 44.3335,131.172 44.5,120.5 Z"/></g>
<g><path style="opacity:0.946" fill="#00487e" d="M 204.5,120.5 C 208.167,120.5 211.833,120.5 215.5,120.5C 215.5,124.5 215.5,128.5 215.5,132.5C 223.5,132.5 231.5,132.5 239.5,132.5C 239.5,128.5 239.5,124.5 239.5,120.5C 243.5,120.5 247.5,120.5 251.5,120.5C 251.5,131.5 251.5,142.5 251.5,153.5C 247.774,153.823 244.107,153.489 240.5,152.5C 239.557,147.9 239.223,143.233 239.5,138.5C 231.826,138.334 224.159,138.5 216.5,139C 215.531,143.737 215.197,148.57 215.5,153.5C 211.894,153.789 208.394,153.456 205,152.5C 204.5,141.839 204.333,131.172 204.5,120.5 Z"/></g>
</svg>
